<?xml version="1.0" encoding="UTF-8"?>
<svg version="1.1" xmlns="http://www.w3.org/2000/svg" width="619" height="619">
<path d="M0 0 C26.73 0 53.46 0 81 0 C81 8.25 81 16.5 81 25 C231.48 25 381.96 25 537 25 C537 16.75 537 8.5 537 0 C564.06 0 591.12 0 619 0 C619 179.52 619 359.04 619 544 C609.43 544 599.86 544 590 544 C590.02320313 547.29742188 590.04640625 550.59484375 590.0703125 553.9921875 C590.08589747 557.17594009 590.09804879 560.35968848 590.10986328 563.54345703 C590.11993825 565.76092421 590.13359859 567.97837805 590.15087891 570.19580078 C590.17506163 573.37796312 590.18646797 576.55995024 590.1953125 579.7421875 C590.21079636 581.23599442 590.21079636 581.23599442 590.22659302 582.75997925 C590.22681961 584.14118454 590.22681961 584.14118454 590.22705078 585.55029297 C590.231492 586.3630368 590.23593323 587.17578064 590.24050903 588.01315308 C590 590 590 590 588 592 C586.05111694 592.24050903 586.05111694 592.24050903 583.64208984 592.22705078 C582.74130707 592.22689972 581.84052429 592.22674866 580.91244507 592.22659302 C579.93844757 592.21627045 578.96445007 592.20594788 577.9609375 592.1953125 C576.96494537 592.1924826 575.96895325 592.18965271 574.94277954 592.18673706 C571.75339882 592.1755184 568.56429622 592.15041081 565.375 592.125 C563.21614988 592.11497238 561.05729537 592.10584615 558.8984375 592.09765625 C553.59876429 592.07727289 548.29969443 592.0381273 543 592 C543 600.91 543 609.82 543 619 C483.52398279 619.02278783 424.04796575 619.04049888 364.5719451 619.05106533 C357.55829868 619.05231272 350.54465227 619.05360927 343.53100586 619.05493164 C342.83304508 619.0550624 342.1350843 619.05519316 341.4159732 619.05532788 C318.77261664 619.05959304 296.12926257 619.06710719 273.48590751 619.07629722 C249.56809792 619.08598692 225.65029008 619.0919936 201.73247856 619.09408849 C187.39576446 619.09546407 173.05905749 619.09981649 158.72234558 619.10791647 C148.90563255 619.1131819 139.08892323 619.11480476 129.27220888 619.11350138 C123.59930864 619.11285768 117.92642091 619.11387909 112.25352287 619.11920547 C107.06919571 619.12403789 101.8848896 619.1243397 96.70056152 619.12089889 C94.81630273 619.12047304 92.93204268 619.1217701 91.04778642 619.12488318 C88.50395113 619.12884457 85.96019376 619.12676502 83.4163599 619.12304783 C82.66975759 619.12567484 81.92315529 619.12830186 81.15392867 619.13100848 C76.1141458 619.1141458 76.1141458 619.1141458 75 618 C74.91251793 616.07332493 74.89302666 614.14348139 74.90234375 612.21484375 C74.90717773 610.46010742 74.90717773 610.46010742 74.91210938 608.66992188 C74.92467773 606.82237305 74.92467773 606.82237305 74.9375 604.9375 C74.94201172 603.70193359 74.94652344 602.46636719 74.95117188 601.19335938 C74.96300392 598.12885883 74.97948827 595.06445279 75 592 C74.37803741 592.00222061 73.75607483 592.00444122 73.11526489 592.00672913 C66.65936862 592.02880126 60.20348301 592.0439147 53.74755859 592.05493164 C51.33609583 592.05996974 48.92463614 592.06680034 46.51318359 592.07543945 C43.05305221 592.08752787 39.5929611 592.09323344 36.1328125 592.09765625 C35.04944611 592.10281754 33.96607971 592.10797882 32.84988403 592.11329651 C31.8489975 592.11337204 30.84811096 592.11344757 29.81689453 592.11352539 C28.93309113 592.115746 28.04928772 592.11796661 27.13870239 592.12025452 C25 592 25 592 23 591 C22.67 575.82 22.34 560.64 22 545 C15.07 544.67 8.14 544.34 1 544 C-0.85607539 542.14392461 -0.12389714 539.49874579 -0.13100848 537.02863678 C-0.12838146 536.16010422 -0.12575445 535.29157166 -0.12304783 534.39671993 C-0.12420167 533.47877918 -0.12535552 532.56083842 -0.12654433 531.61508128 C-0.12921899 528.49849177 -0.12468189 525.38195256 -0.12025452 522.2653656 C-0.12069005 520.02473582 -0.12156461 517.7841061 -0.12284368 515.54347664 C-0.12509225 509.35467498 -0.12106245 503.16589044 -0.11606562 496.97709095 C-0.11220733 490.99831363 -0.1130248 485.01953753 -0.11374746 479.04075941 C-0.1150635 466.80479857 -0.11171188 454.56884311 -0.10573006 442.33288383 C-0.09981965 430.21201997 -0.09596545 418.09115834 -0.09487724 405.97029305 C-0.0948085 405.21757548 -0.09473976 404.46485792 -0.09466894 403.68933074 C-0.09433062 399.86689531 -0.09402923 396.04445988 -0.09374207 392.22202445 C-0.09163982 365.12465865 -0.08489737 338.02729579 -0.07543945 310.92993164 C-0.06625993 284.59985367 -0.05917391 258.26977651 -0.05493164 231.93969727 C-0.05480011 231.12855643 -0.05466859 230.3174156 -0.05453308 229.48169474 C-0.05321459 221.33612821 -0.05193877 213.19056167 -0.05069422 205.04499512 C-0.04815778 188.45049333 -0.04533653 171.85599159 -0.04234314 155.26148987 C-0.0421372 154.11692508 -0.0421372 154.11692508 -0.04192711 152.94923776 C-0.03272136 101.9661572 -0.01664778 50.9830786 0 0 Z " fill="#0001E9" transform="translate(0,0)"/>
<path d="M0 0 C1.32 0 2.64 0 4 0 C4 8.25 4 16.5 4 25 C154.48 25 304.96 25 460 25 C460 16.75 460 8.5 460 0 C460.33 0 460.66 0 461 0 C462.44257825 25.68304493 462 51.23150365 462 77 C309.54 77 157.08 77 0 77 C0 51.59 0 26.18 0 0 Z " fill="#000002" transform="translate(77,0)"/>
<path d="M0 0 C25.41 0 50.82 0 77 0 C77 50.82 77 101.64 77 154 C51.59 154 26.18 154 0 154 C0 103.18 0 52.36 0 0 Z " fill="#000001" transform="translate(462,309)"/>
<path d="M0 0 C25.41 0 50.82 0 77 0 C77 50.82 77 101.64 77 154 C51.59 154 26.18 154 0 154 C0 103.18 0 52.36 0 0 Z " fill="#000001" transform="translate(77,309)"/>
<path d="M0 0 C0.33 0 0.66 0 1 0 C1 179.52 1 359.04 1 544 C-8.57 544 -18.14 544 -28 544 C-27.97679687 547.29742188 -27.95359375 550.59484375 -27.9296875 553.9921875 C-27.91410253 557.17594009 -27.90195121 560.35968848 -27.89013672 563.54345703 C-27.88006175 565.76092421 -27.86640141 567.97837805 -27.84912109 570.19580078 C-27.82493837 573.37796312 -27.81353203 576.55995024 -27.8046875 579.7421875 C-27.78920364 581.23599442 -27.78920364 581.23599442 -27.77340698 582.75997925 C-27.77318039 584.14118454 -27.77318039 584.14118454 -27.77294922 585.55029297 C-27.768508 586.3630368 -27.76406677 587.17578064 -27.75949097 588.01315308 C-28 590 -28 590 -30 592 C-31.94888306 592.24050903 -31.94888306 592.24050903 -34.35791016 592.22705078 C-35.25869293 592.22689972 -36.15947571 592.22674866 -37.08755493 592.22659302 C-38.06155243 592.21627045 -39.03554993 592.20594788 -40.0390625 592.1953125 C-41.03505463 592.1924826 -42.03104675 592.18965271 -43.05722046 592.18673706 C-46.24660118 592.1755184 -49.43570378 592.15041081 -52.625 592.125 C-54.78385012 592.11497238 -56.94270463 592.10584615 -59.1015625 592.09765625 C-64.40123571 592.07727289 -69.70030557 592.0381273 -75 592 C-75 600.91 -75 609.82 -75 619 C-229.11 619 -383.22 619 -542 619 C-542 618.67 -542 618.34 -542 618 C-389.21 618 -236.42 618 -79 618 C-79 592.26 -79 566.52 -79 540 C-52.93 540 -26.86 540 0 540 C0 361.8 0 183.6 0 0 Z " fill="#000002" transform="translate(618,0)"/>
<path d="M0 0 C25.41 0 50.82 0 77 0 C77.14984709 54.39449541 77.14984709 54.39449541 76 78 C75.67 78 75.34 78 75 78 C75 69.42 75 60.84 75 52 C71.41382812 52.01160156 67.82765625 52.02320313 64.1328125 52.03515625 C60.6710621 52.04294827 57.20931266 52.04902421 53.74755859 52.05493164 C51.33609583 52.05996974 48.92463614 52.06680034 46.51318359 52.07543945 C43.05305221 52.08752787 39.5929611 52.09323344 36.1328125 52.09765625 C35.04944611 52.10281754 33.96607971 52.10797882 32.84988403 52.11329651 C31.8489975 52.11337204 30.84811096 52.11344757 29.81689453 52.11352539 C28.93309113 52.115746 28.04928772 52.11796661 27.13870239 52.12025452 C25 52 25 52 23 51 C22.67 35.82 22.34 20.64 22 5 C15.07 4.67 8.14 4.34 1 4 C0.67 2.68 0.34 1.36 0 0 Z " fill="#000002" transform="translate(0,540)"/>
</svg>
